#!OML:ASF F:\VICON\USERDATA\INSTALL\rory3\rory3.ASF
:FULLY-SPECIFIED
:DEGREES
86
root 1.319157590610203 17.880314120761206 52.508974417882484 -3.300707170299752 -0.7335474841805423 1.0491540991118598
lfemur 6.958857387218359 -4.676569125156662 -25.812218250738887
ltibia 18.1021847969684
lfoot -3.360091925394545 -3.5829168544446994
ltoes -7.844255654684824
rfemur -25.19618554482893 1.8331595492989958 21.148869743817052
rtibia 52.63721768893859
rfoot -7.7821186851761395 -2.490789303524853
rtoes 3.4697434145757304
lowerback 1.0 -1.0961146369721604 -1.5643833124538844
upperback 0.3151621123541405 -1.4716565731025202 1.2525894114230631
thorax -4.830518283196861 -0.6949355130438303 2.7320633788227786
lowerneck -17.139286275197065 -2.879272887800187 -1.6701050591854658
upperneck 21.22412525881715 -3.6855243437722365 1.3781897749006755
head 9.695269605574907 -1.7566312971434848 0.36367028107544325
lclavicle -1.093734114378464e-15 -4.168380409530372e-16
lhumerus -27.21034248399049 -2.469556827960261 83.66097211948285
lradius 28.523946284520022
lwrist 5.204446614226789
lhand -26.77159826946781 23.58224843373102
lfingers nan
lthumb -0.38709907365858376 53.34555089911621
rclavicle -1.2166383379674607e-15 -5.067348891695983e-16
rhumerus -28.418314743963297 -17.47663220723115 -80.27951808107679
rradius 28.299811716426117
rwrist 3.680148674165836
rhand -17.396096169066833 1.0
rfingers nan
rthumb 9.070279736171576 -7.616871092489612
87
root 1.3114342743830238 17.870832001195936 52.26725037241701 -3.3361350581531086 -1.5879863150065945 0.6371872409560648
lfemur 9.070448606347334 -4.2535536388205895 -25.136270955457647
ltibia 18.24607626545205
lfoot -2.184207019604731 -4.386606548890908
ltoes -7.6750208450715744
rfemur -26.17323372304793 2.293606675588007 21.62877810277056
rtibia 49.04456247357439
rfoot -8.154169738625002 -2.0696193228639057
rtoes 2.5627920765719217
lowerback 1.0 -1.2234083119974235 -1.5567575411863328
upperback 0.32286283513858743 -1.6426469794526934 1.5090605492320601
thorax -4.804627750846175 -0.7837249355481052 3.024368214569546
lowerneck -17.10556538157856 -2.797408661447107 -1.7673065088544455
upperneck 21.46231688374447 -3.5497335972625947 1.2045902463067963
head 9.76495810750114 -1.7061786419181817 0.33590121620300917
lclavicle -1.096161023261821e-15 -4.1742230739696867e-16
lhumerus -25.93878445722633 -3.128786797676433 83.46086972726141
lradius 28.870051409298537
lwrist 4.727933756592728
lhand -26.763701257843202 23.634011170118345
lfingers nan
lthumb -0.35528485391058784 53.42549814292517
rclavicle -1.2257037794579144e-15 -5.108349725797062e-16
rhumerus -28.819588857057127 -17.925751685623876 -80.2905375055973
rradius 28.365444344599656
rwrist 3.7734206328939357
rhand -17.403767671542038 1.0
rfingers nan
rthumb 9.077546536795053 -7.591548805268527
88
root 1.3037474520200947 17.855118501025146 51.679749843274244 -3.332842983769363 -2.1509313951417735 0.12863104693439542
lfemur 10.41184409774674 -3.8931599273239534 -24.289026750268476
ltibia 19.31835906033293
lfoot -1.8703484666572807 -4.879303666769416
ltoes -6.3126412277633985
rfemur -26.40973904653405 2.574258759954006 22.23387308432286
rtibia 44.70104791354123
rfoot -8.465473111600215 -1.750135289701844
rtoes 1.799362457977224
lowerback 1.0 -1.310449389527529 -1.3868991798630397
upperback 0.33376926041743094 -1.6702489340333198 1.7968355431771885
thorax -4.76638025202601 -0.8062024385261323 3.154698964866911
lowerneck -17.047076974069235 -2.7339785639587375 -1.8719381176779153
upperneck 21.705047993017768 -3.43939469314181 1.0354067131745717
head 9.83990029345772 -1.6670388577736697 0.30010006064108274
lclavicle -1.098099583952841e-15 -4.178467253870686e-16
lhumerus -24.93345073484124 -3.584149140361629 83.28625924471267
lradius 29.18863616143787
lwrist 4.509166132479662
lhand -26.74706520789148 23.738308206623863
lfingers nan
lthumb -0.33518363450642386 53.55185722962553
rclavicle -1.2347415718989268e-15 -5.153485982648542e-16
rhumerus -29.2202041215254 -18.350252837201356 -80.22626999540402
rradius 28.487579278384064
rwrist 3.68797143529984
rhand -17.37297057821366 1.0
rfingers nan
rthumb 9.076977391906507 -7.62278417169922
89
root 1.3242394680516576 17.84505214341163 51.83879386122187 -3.350772564786912 -2.326053038053537 0.01544347545378244
lfemur 10.660834342064746 -3.794751330093376 -23.83000879956922
ltibia 21.825533619124606
lfoot -1.483358974527282 -4.8223692839146794
ltoes -5.625863706402844
rfemur -26.074082936676813 2.6265159967680107 22.43801851083201
rtibia 39.99966790805991
rfoot -8.838653107551705 -1.6426151511179867
rtoes 1.1563340812669005
lowerback 1.0 -1.3905019620690702 -1.3681248496001843
upperback 0.31905030013632607 -1.719011558104725 1.984007665402183
thorax -4.756930188286398 -0.8388389950312592 3.2056763191467357
lowerneck -16.991425012785875 -2.6921247015877845 -1.9477246662061691
upperneck 21.898917483907333 -3.3618102117239554 0.8786462949054406
head 9.900733894783396 -1.6420028195317373 0.25710030630807496
lclavicle -1.0979763177729049e-15 -4.172337338240758e-16
lhumerus -24.21928885088519 -3.8777325892178096 83.16666494464197
lradius 29.43257730410246
lwrist 4.503823469096812
lhand -26.73744199800368 23.841584438291648
lfingers nan
lthumb -0.322242100168355 53.65900000389122
rclavicle -1.23944830386532e-15 -5.179293328327895e-16
rhumerus -29.589707498350563 -18.793544043999436 -80.10513082330252
rradius 28.631510422059158
rwrist 3.553754722430146
rhand -17.38941003453318 1.0
rfingers nan
rthumb 9.082700496332993 -7.65690952694574
90
root 1.3290438152069775 17.834579976274245 51.045615733407246 -3.2761397143124156 -2.4420618651388915 -0.47300419573380004
lfemur 10.033132394708534 -3.746920512339443 -23.01547448556974
ltibia 25.80511848687916
lfoot -1.6700880266561127 -4.253030316767717
ltoes -4.926593570272329
rfemur -25.31262143974411 2.6546199232138123 23.066549504520207
rtibia 35.41494476934928
rfoot -9.42647031705195 -2.1783456133033745
rtoes 0.5939095669416075
lowerback 1.0 -1.4177417543778725 -0.9464378585608784
upperback 0.2914903037742669 -1.6823428754473444 2.1483040327938108
thorax -4.782265877252003 -0.8359157791428352 3.181536955213451
lowerneck -16.964532968056275 -2.6686691287999307 -1.9684995849296003
upperneck 22.00455934665906 -3.317645528948124 0.7401705172900197
head 9.929818198160518 -1.6307583165139965 0.21051735160304047
lclavicle -1.0978329953468726e-15 -4.170235315182224e-16
lhumerus -23.810506328895222 -4.117970980003244 83.09824261766525
lradius 29.53659216248472
lwrist 4.581826127873745
lhand -26.69366673960389 23.910018831718435
lfingers nan
lthumb -0.2997469613130922 53.71806915606975
rclavicle -1.240692391750672e-15 -5.185532739070876e-16
rhumerus -29.89082927122056 -19.250970145373472 -79.93271577605105
rradius 28.764999414868207
rwrist 3.496098265325326
rhand -17.362679181363116 1.0
rfingers nan
rthumb 9.0756927179544 -7.738540329421733
